<mxfile host="Electron" modified="2023-11-25T10:06:56.176Z" agent="Mozilla/5.0 (Windows NT 10.0; Win64; x64) AppleWebKit/537.36 (KHTML, like Gecko) draw.io/22.0.3 Chrome/114.0.5735.289 Electron/25.8.4 Safari/537.36" etag="SO1p_pSXDeRNtV3MiElZ" version="22.0.3" type="device">
  <diagram name="Trang-1" id="NIQV9puHBk_IiYt71eVW">
    <mxGraphModel dx="1036" dy="606" grid="1" gridSize="10" guides="1" tooltips="1" connect="1" arrows="1" fold="1" page="1" pageScale="1" pageWidth="850" pageHeight="1100" math="0" shadow="0">
      <root>
        <mxCell id="0" />
        <mxCell id="1" parent="0" />
        <mxCell id="rm6uVH4t2GQNLEcWgGYT-12" value="" style="shape=waypoint;sketch=0;size=6;pointerEvents=1;points=[];fillColor=none;resizable=0;rotatable=0;perimeter=centerPerimeter;snapToPoint=1;fontFamily=Helvetica;fontSize=11;fontColor=default;" parent="1" vertex="1">
          <mxGeometry x="215" y="310" width="20" height="20" as="geometry" />
        </mxCell>
        <mxCell id="rm6uVH4t2GQNLEcWgGYT-14" value="&lt;span style=&quot;font-size: 22px; font-weight: normal;&quot;&gt;C&lt;/span&gt;" style="text;html=1;strokeColor=none;fillColor=none;align=center;verticalAlign=middle;whiteSpace=wrap;rounded=0;fontSize=22;fontFamily=Times New Roman;fontColor=default;fontStyle=1" parent="1" vertex="1">
          <mxGeometry x="360" y="245" width="20" height="30" as="geometry" />
        </mxCell>
        <mxCell id="rm6uVH4t2GQNLEcWgGYT-17" value="&lt;span style=&quot;font-weight: normal;&quot;&gt;&lt;font style=&quot;font-size: 22px;&quot;&gt;E&lt;/font&gt;&lt;/span&gt;" style="text;html=1;strokeColor=none;fillColor=none;align=center;verticalAlign=middle;whiteSpace=wrap;rounded=0;fontSize=14;fontFamily=Times New Roman;fontColor=default;fontStyle=3" parent="1" vertex="1">
          <mxGeometry x="50" y="245" width="60" height="30" as="geometry" />
        </mxCell>
        <mxCell id="rm6uVH4t2GQNLEcWgGYT-18" value="&lt;span style=&quot;font-size: 22px; font-weight: normal;&quot;&gt;B&lt;/span&gt;" style="text;html=1;strokeColor=none;fillColor=none;align=center;verticalAlign=middle;whiteSpace=wrap;rounded=0;fontSize=22;fontFamily=Times New Roman;fontColor=default;fontStyle=3" parent="1" vertex="1">
          <mxGeometry x="212.5" y="325" width="25" height="30" as="geometry" />
        </mxCell>
        <mxCell id="rm6uVH4t2GQNLEcWgGYT-53" value="&lt;span style=&quot;font-weight: 400; font-size: 22px;&quot;&gt;v&lt;sub&gt;BE&lt;/sub&gt;&lt;/span&gt;" style="text;html=1;strokeColor=none;fillColor=none;align=center;verticalAlign=middle;whiteSpace=wrap;rounded=0;fontSize=14;fontFamily=Times New Roman;fontColor=default;fontStyle=3" parent="1" vertex="1">
          <mxGeometry x="145" y="285" width="30" height="30" as="geometry" />
        </mxCell>
        <mxCell id="rm6uVH4t2GQNLEcWgGYT-27" value="" style="shape=process;whiteSpace=wrap;html=1;backgroundOutline=1;fontFamily=Helvetica;fontSize=11;fontColor=default;rotation=0;size=0.4166666666666667;verticalAlign=middle;" parent="1" vertex="1">
          <mxGeometry x="165" y="245" width="120" height="30.000000000000004" as="geometry" />
        </mxCell>
        <mxCell id="rm6uVH4t2GQNLEcWgGYT-30" value="&lt;span style=&quot;font-size: 14px; font-weight: normal;&quot;&gt;p&lt;/span&gt;" style="text;html=1;strokeColor=#000000;fillColor=#d0cee2;align=center;verticalAlign=middle;whiteSpace=wrap;rounded=0;fontSize=14;fontFamily=Times New Roman;fontStyle=1;rotation=0;" parent="1" vertex="1">
          <mxGeometry x="195" y="245" width="60" height="30.000000000000004" as="geometry" />
        </mxCell>
        <mxCell id="rm6uVH4t2GQNLEcWgGYT-31" value="&lt;span style=&quot;font-size: 14px; font-weight: normal;&quot;&gt;n&lt;/span&gt;" style="text;html=1;strokeColor=#000000;fillColor=#FF66FF;align=center;verticalAlign=middle;whiteSpace=wrap;rounded=0;fontSize=14;fontFamily=Times New Roman;fontStyle=1;labelBackgroundColor=none;labelBorderColor=none;rotation=0;glass=0;shadow=0;fillStyle=auto;gradientColor=none;" parent="1" vertex="1">
          <mxGeometry x="235" y="245" width="50" height="30.000000000000004" as="geometry" />
        </mxCell>
        <mxCell id="rm6uVH4t2GQNLEcWgGYT-54" value="" style="shape=waypoint;sketch=0;size=6;pointerEvents=1;points=[];fillColor=none;resizable=0;rotatable=0;perimeter=centerPerimeter;snapToPoint=1;fontFamily=Helvetica;fontSize=11;fontColor=default;rotation=-90;" parent="1" vertex="1">
          <mxGeometry x="215" y="265" width="20" height="20" as="geometry" />
        </mxCell>
        <mxCell id="bECB-CtGjSUUQnR-ouSg-17" style="edgeStyle=orthogonalEdgeStyle;shape=connector;rounded=0;orthogonalLoop=1;jettySize=auto;html=1;labelBackgroundColor=default;strokeColor=default;align=center;verticalAlign=middle;fontFamily=Helvetica;fontSize=11;fontColor=default;endArrow=none;endFill=0;" edge="1" parent="1" source="rm6uVH4t2GQNLEcWgGYT-5">
          <mxGeometry relative="1" as="geometry">
            <mxPoint x="350" y="261" as="targetPoint" />
          </mxGeometry>
        </mxCell>
        <mxCell id="rm6uVH4t2GQNLEcWgGYT-58" value="" style="shape=waypoint;sketch=0;size=6;pointerEvents=1;points=[];fillColor=none;resizable=0;rotatable=0;perimeter=centerPerimeter;snapToPoint=1;fontFamily=Helvetica;fontSize=11;fontColor=default;rotation=-90;" parent="1" vertex="1">
          <mxGeometry x="275" y="251" width="20" height="20" as="geometry" />
        </mxCell>
        <mxCell id="rm6uVH4t2GQNLEcWgGYT-29" value="&lt;span style=&quot;font-size: 14px; font-weight: normal;&quot;&gt;n&lt;/span&gt;" style="text;html=1;strokeColor=#000000;fillColor=#FF33FF;align=center;verticalAlign=middle;whiteSpace=wrap;rounded=0;fontSize=14;fontFamily=Times New Roman;fontStyle=1;rotation=0;" parent="1" vertex="1">
          <mxGeometry x="165" y="245" width="50" height="30.000000000000004" as="geometry" />
        </mxCell>
        <mxCell id="rm6uVH4t2GQNLEcWgGYT-57" value="" style="shape=waypoint;sketch=0;size=6;pointerEvents=1;points=[];fillColor=none;resizable=0;rotatable=0;perimeter=centerPerimeter;snapToPoint=1;fontFamily=Helvetica;fontSize=11;fontColor=default;rotation=-90;" parent="1" vertex="1">
          <mxGeometry x="155" y="251" width="20" height="20" as="geometry" />
        </mxCell>
        <mxCell id="bECB-CtGjSUUQnR-ouSg-5" value="&lt;span style=&quot;font-weight: 400; font-size: 22px;&quot;&gt;v&lt;sub&gt;BC&lt;/sub&gt;&lt;/span&gt;" style="text;html=1;strokeColor=none;fillColor=none;align=center;verticalAlign=middle;whiteSpace=wrap;rounded=0;fontSize=14;fontFamily=Times New Roman;fontColor=default;fontStyle=3" vertex="1" parent="1">
          <mxGeometry x="275" y="285" width="30" height="30" as="geometry" />
        </mxCell>
        <mxCell id="bECB-CtGjSUUQnR-ouSg-11" style="edgeStyle=orthogonalEdgeStyle;rounded=0;orthogonalLoop=1;jettySize=auto;html=1;entryX=0.253;entryY=0.519;entryDx=0;entryDy=0;entryPerimeter=0;endArrow=none;endFill=0;" edge="1" parent="1" source="rm6uVH4t2GQNLEcWgGYT-12" target="rm6uVH4t2GQNLEcWgGYT-54">
          <mxGeometry relative="1" as="geometry" />
        </mxCell>
        <mxCell id="bECB-CtGjSUUQnR-ouSg-19" style="edgeStyle=orthogonalEdgeStyle;shape=connector;rounded=0;orthogonalLoop=1;jettySize=auto;html=1;labelBackgroundColor=default;strokeColor=default;align=center;verticalAlign=middle;fontFamily=Helvetica;fontSize=11;fontColor=default;endArrow=none;endFill=0;" edge="1" parent="1" source="bECB-CtGjSUUQnR-ouSg-18" target="rm6uVH4t2GQNLEcWgGYT-57">
          <mxGeometry relative="1" as="geometry" />
        </mxCell>
        <mxCell id="bECB-CtGjSUUQnR-ouSg-18" value="" style="shape=waypoint;sketch=0;size=6;pointerEvents=1;points=[];fillColor=none;resizable=0;rotatable=0;perimeter=centerPerimeter;snapToPoint=1;fontFamily=Helvetica;fontSize=11;fontColor=default;" vertex="1" parent="1">
          <mxGeometry x="90" y="251" width="20" height="20" as="geometry" />
        </mxCell>
        <mxCell id="bECB-CtGjSUUQnR-ouSg-21" value="" style="endArrow=classic;startArrow=classic;html=1;rounded=0;labelBackgroundColor=default;strokeColor=default;align=center;verticalAlign=middle;fontFamily=Helvetica;fontSize=11;fontColor=default;shape=connector;entryX=0.75;entryY=1;entryDx=0;entryDy=0;exitX=-0.143;exitY=-0.009;exitDx=0;exitDy=0;exitPerimeter=0;" edge="1" parent="1" source="rm6uVH4t2GQNLEcWgGYT-18" target="rm6uVH4t2GQNLEcWgGYT-17">
          <mxGeometry width="50" height="50" relative="1" as="geometry">
            <mxPoint x="200" y="320" as="sourcePoint" />
            <mxPoint x="100" y="280" as="targetPoint" />
            <Array as="points">
              <mxPoint x="140" y="320" />
            </Array>
          </mxGeometry>
        </mxCell>
        <mxCell id="bECB-CtGjSUUQnR-ouSg-22" value="" style="endArrow=classic;startArrow=classic;html=1;rounded=0;labelBackgroundColor=default;strokeColor=default;align=center;verticalAlign=middle;fontFamily=Helvetica;fontSize=11;fontColor=default;shape=connector;entryX=1;entryY=0;entryDx=0;entryDy=0;exitX=0;exitY=1;exitDx=0;exitDy=0;" edge="1" parent="1" source="rm6uVH4t2GQNLEcWgGYT-14" target="rm6uVH4t2GQNLEcWgGYT-18">
          <mxGeometry width="50" height="50" relative="1" as="geometry">
            <mxPoint x="350" y="365" as="sourcePoint" />
            <mxPoint x="246" y="315" as="targetPoint" />
            <Array as="points">
              <mxPoint x="300" y="320" />
            </Array>
          </mxGeometry>
        </mxCell>
        <mxCell id="bECB-CtGjSUUQnR-ouSg-23" value="" style="edgeStyle=orthogonalEdgeStyle;shape=connector;rounded=0;orthogonalLoop=1;jettySize=auto;html=1;labelBackgroundColor=default;strokeColor=default;align=center;verticalAlign=middle;fontFamily=Helvetica;fontSize=11;fontColor=default;endArrow=none;endFill=0;" edge="1" parent="1" source="rm6uVH4t2GQNLEcWgGYT-58" target="rm6uVH4t2GQNLEcWgGYT-5">
          <mxGeometry relative="1" as="geometry">
            <mxPoint x="285" y="261" as="sourcePoint" />
            <mxPoint x="350" y="261" as="targetPoint" />
          </mxGeometry>
        </mxCell>
        <mxCell id="rm6uVH4t2GQNLEcWgGYT-5" value="" style="shape=waypoint;sketch=0;size=6;pointerEvents=1;points=[];fillColor=none;resizable=0;rotatable=0;perimeter=centerPerimeter;snapToPoint=1;fontFamily=Helvetica;fontSize=11;fontColor=default;" parent="1" vertex="1">
          <mxGeometry x="340" y="251" width="20" height="20" as="geometry" />
        </mxCell>
        <mxCell id="bECB-CtGjSUUQnR-ouSg-24" value="" style="endArrow=classic;html=1;rounded=0;labelBackgroundColor=default;strokeColor=#ff1fad;align=center;verticalAlign=middle;fontFamily=Helvetica;fontSize=11;fontColor=default;shape=connector;fillColor=#f8cecc;strokeWidth=2;" edge="1" parent="1">
          <mxGeometry width="50" height="50" relative="1" as="geometry">
            <mxPoint x="510" y="265" as="sourcePoint" />
            <mxPoint x="780" y="265" as="targetPoint" />
          </mxGeometry>
        </mxCell>
        <mxCell id="bECB-CtGjSUUQnR-ouSg-25" value="" style="endArrow=classic;html=1;rounded=0;labelBackgroundColor=default;strokeColor=#ff1fad;align=center;verticalAlign=middle;fontFamily=Helvetica;fontSize=11;fontColor=default;shape=connector;fillColor=#f8cecc;strokeWidth=2;" edge="1" parent="1">
          <mxGeometry width="50" height="50" relative="1" as="geometry">
            <mxPoint x="640" y="325" as="sourcePoint" />
            <mxPoint x="640" y="205" as="targetPoint" />
          </mxGeometry>
        </mxCell>
        <mxCell id="bECB-CtGjSUUQnR-ouSg-26" value="&lt;span style=&quot;font-weight: 400; font-size: 16px;&quot;&gt;v&lt;sub&gt;BC&lt;/sub&gt;&lt;/span&gt;" style="text;html=1;strokeColor=none;fillColor=none;align=center;verticalAlign=middle;whiteSpace=wrap;rounded=0;fontSize=14;fontFamily=Times New Roman;fontColor=default;fontStyle=3" vertex="1" parent="1">
          <mxGeometry x="610" y="180" width="30" height="30" as="geometry" />
        </mxCell>
        <mxCell id="bECB-CtGjSUUQnR-ouSg-27" value="&lt;span style=&quot;font-weight: 400; font-size: 16px;&quot;&gt;v&lt;sub&gt;BE&lt;/sub&gt;&lt;/span&gt;" style="text;html=1;strokeColor=none;fillColor=none;align=center;verticalAlign=middle;whiteSpace=wrap;rounded=0;fontSize=14;fontFamily=Times New Roman;fontColor=default;fontStyle=3" vertex="1" parent="1">
          <mxGeometry x="760" y="260" width="30" height="30" as="geometry" />
        </mxCell>
        <mxCell id="bECB-CtGjSUUQnR-ouSg-28" value="Tích cực ngược" style="text;html=1;strokeColor=none;fillColor=none;align=center;verticalAlign=middle;whiteSpace=wrap;rounded=0;fontSize=22;fontFamily=Times New Roman;fontColor=default;" vertex="1" parent="1">
          <mxGeometry x="480" y="221" width="150" height="30" as="geometry" />
        </mxCell>
        <mxCell id="bECB-CtGjSUUQnR-ouSg-29" value="Bão hòa" style="text;html=1;strokeColor=none;fillColor=none;align=center;verticalAlign=middle;whiteSpace=wrap;rounded=0;fontSize=22;fontFamily=Times New Roman;fontColor=default;" vertex="1" parent="1">
          <mxGeometry x="630" y="221" width="150" height="30" as="geometry" />
        </mxCell>
        <mxCell id="bECB-CtGjSUUQnR-ouSg-30" value="Tích cực thuận" style="text;html=1;strokeColor=none;fillColor=none;align=center;verticalAlign=middle;whiteSpace=wrap;rounded=0;fontSize=22;fontFamily=Times New Roman;fontColor=default;" vertex="1" parent="1">
          <mxGeometry x="640" y="285" width="150" height="30" as="geometry" />
        </mxCell>
        <mxCell id="bECB-CtGjSUUQnR-ouSg-31" value="Khóa" style="text;html=1;strokeColor=none;fillColor=none;align=center;verticalAlign=middle;whiteSpace=wrap;rounded=0;fontSize=22;fontFamily=Times New Roman;fontColor=default;" vertex="1" parent="1">
          <mxGeometry x="490" y="285" width="150" height="30" as="geometry" />
        </mxCell>
      </root>
    </mxGraphModel>
  </diagram>
</mxfile>
